<mxGraphModel dx="0" dy="0" grid="1" gridSize="10" guides="1" tooltips="1" connect="1" arrows="1" fold="1" page="0" pageScale="1" background="none" math="0" shadow="0">
  <root>
    <mxCell id="0" />
    <mxCell id="1" parent="0" />
    <mxCell id="node5" parent="1" vertex="1" value="&lt;p style=&quot;margin:0px;margin-top:4px;text-align:center;&quot;&gt;&lt;b&gt;Apod&lt;/b&gt;&lt;/p&gt;&lt;hr size=&quot;1&quot;/&gt;&lt;p style=&quot;margin:0 0 0 4px;line-height:1.6;&quot;&gt;- lowDefUrl: URL&lt;br/&gt;- mediaType: MediaType&lt;br/&gt;- dateTaken: LocalDate&lt;br/&gt;- isFavorite: boolean&lt;br/&gt;- copyright: String&lt;br/&gt;- id: long&lt;br/&gt;- description: String&lt;br/&gt;- location: String&lt;br/&gt;- date: LocalDate&lt;br/&gt;- title: String&lt;br/&gt;- highDefUrl: URL&lt;/p&gt;&lt;hr size=&quot;1&quot;/&gt;&lt;p style=&quot;margin:0 0 0 4px;line-height:1.6;&quot;&gt; description: String&lt;br/&gt; highDefUrl: URL&lt;br/&gt; dateTaken: LocalDate&lt;br/&gt; location: String&lt;br/&gt; title: String&lt;br/&gt; isFavorite: boolean&lt;br/&gt; date: LocalDate&lt;br/&gt; copyright: String&lt;br/&gt; lowDefUrl: URL&lt;br/&gt; mediaType: MediaType&lt;br/&gt; id: long&lt;/p&gt;" style="verticalAlign=top;align=left;overflow=fill;fontSize=14;fontFamily=Helvetica;html=1;rounded=0;shadow=0;comic=0;labelBackgroundColor=none;strokeWidth=1;">
      <mxGeometry x="-220" y="-328" width="189" height="547" as="geometry" />
    </mxCell>
    <mxCell id="node14" parent="1" vertex="1" value="&lt;p style=&quot;margin:0px;margin-top:4px;text-align:center;&quot;&gt;&lt;i&gt;&amp;lt;&amp;lt;interface&amp;gt;&amp;gt;&lt;/i&gt;&lt;br/&gt;&lt;b&gt;ApodDao&lt;/b&gt;&lt;/p&gt;&lt;hr size=&quot;1&quot;/&gt;&lt;p style=&quot;margin:0 0 0 4px;line-height:1.6;&quot;&gt;+ selectRange(LocalDate, LocalDate): LiveData&amp;lt;List&amp;lt;Apod&amp;gt;&amp;gt;&lt;br/&gt;+ insert(Apod): Completable&lt;br/&gt;+ insert(List&amp;lt;Apod&amp;gt;): Completable&lt;br/&gt;+ select(LocalDate): LiveData&amp;lt;Apod&amp;gt;&lt;br/&gt;+ selectOpenRange(LocalDate): LiveData&amp;lt;List&amp;lt;Apod&amp;gt;&amp;gt;&lt;br/&gt;+ deleteAll(): Completable&lt;br/&gt;+ select(long): LiveData&amp;lt;Apod&amp;gt;&lt;/p&gt;&lt;hr size=&quot;1&quot;/&gt;&lt;p style=&quot;margin:0 0 0 4px;line-height:1.6;&quot;&gt; andUpdateFavorites: LiveData&amp;lt;List&amp;lt;Apod&amp;gt;&amp;gt;&lt;/p&gt;" style="verticalAlign=top;align=left;overflow=fill;fontSize=14;fontFamily=Helvetica;html=1;rounded=0;shadow=0;comic=0;labelBackgroundColor=none;strokeWidth=1;">
      <mxGeometry x="520" y="-328" width="413" height="225" as="geometry" />
    </mxCell>
    <mxCell id="node7" parent="1" vertex="1" value="&lt;p style=&quot;margin:0px;margin-top:4px;text-align:center;&quot;&gt;&lt;b&gt;ApodDatabase&lt;/b&gt;&lt;/p&gt;&lt;hr size=&quot;1&quot;/&gt;&lt;p style=&quot;margin:0 0 0 4px;line-height:1.6;&quot;&gt;- NAME: String&lt;/p&gt;&lt;hr size=&quot;1&quot;/&gt;&lt;p style=&quot;margin:0 0 0 4px;line-height:1.6;&quot;&gt; apodDao: ApodDao&lt;br/&gt; NAME: String&lt;/p&gt;" style="verticalAlign=top;align=left;overflow=fill;fontSize=14;fontFamily=Helvetica;html=1;rounded=0;shadow=0;comic=0;labelBackgroundColor=none;strokeWidth=1;">
      <mxGeometry x="-220" y="708" width="166" height="119" as="geometry" />
    </mxCell>
    <mxCell id="node12" parent="1" vertex="1" value="&lt;p style=&quot;margin:0px;margin-top:4px;text-align:center;&quot;&gt;&lt;i&gt;&amp;lt;&amp;lt;interface&amp;gt;&amp;gt;&lt;/i&gt;&lt;br/&gt;&lt;b&gt;ApodProxyService&lt;/b&gt;&lt;/p&gt;&lt;hr size=&quot;1&quot;/&gt;&lt;p style=&quot;margin:0 0 0 4px;line-height:1.6;&quot;&gt;+ getToday(String): Single&amp;lt;Apod&amp;gt;&lt;br/&gt;+ getDateRange(LocalDate, LocalDate, String): Single&amp;lt;List&amp;lt;Apod&amp;gt;&amp;gt;&lt;br/&gt;+ getOpenDateRange(LocalDate, String): Single&amp;lt;List&amp;lt;Apod&amp;gt;&amp;gt;&lt;/p&gt;" style="verticalAlign=top;align=left;overflow=fill;fontSize=14;fontFamily=Helvetica;html=1;rounded=0;shadow=0;comic=0;labelBackgroundColor=none;strokeWidth=1;">
      <mxGeometry x="-9" y="708" width="455" height="135" as="geometry" />
    </mxCell>
    <mxCell id="node1" parent="1" vertex="1" value="&lt;p style=&quot;margin:0px;margin-top:4px;text-align:center;&quot;&gt;&lt;b&gt;ApodRepository&lt;/b&gt;&lt;/p&gt;&lt;hr size=&quot;1&quot;/&gt;&lt;p style=&quot;margin:0 0 0 4px;line-height:1.6;&quot;&gt;+ get(): LiveData&amp;lt;Apod&amp;gt;&lt;br/&gt;+ fetch(LocalDate, LocalDate): Completable&lt;br/&gt;+ get(long): LiveData&amp;lt;Apod&amp;gt;&lt;br/&gt;+ get(LocalDate): LiveData&amp;lt;List&amp;lt;Apod&amp;gt;&amp;gt;&lt;br/&gt;+ get(LocalDate, LocalDate): LiveData&amp;lt;List&amp;lt;Apod&amp;gt;&amp;gt;&lt;/p&gt;" style="verticalAlign=top;align=left;overflow=fill;fontSize=14;fontFamily=Helvetica;html=1;rounded=0;shadow=0;comic=0;labelBackgroundColor=none;strokeWidth=1;">
      <mxGeometry x="-220" y="509" width="357" height="154" as="geometry" />
    </mxCell>
    <mxCell id="node0" parent="1" vertex="1" value="&lt;p style=&quot;margin:0px;margin-top:4px;text-align:center;&quot;&gt;&lt;b&gt;ApodViewModel&lt;/b&gt;&lt;/p&gt;&lt;hr size=&quot;1&quot;/&gt;&lt;p style=&quot;margin:0 0 0 4px;line-height:1.6;&quot;&gt;- apodId: MutableLiveData&amp;lt;Long&amp;gt;&lt;br/&gt;- apods: LiveData&amp;lt;List&amp;lt;Apod&amp;gt;&amp;gt;&lt;br/&gt;- yearMonth: MutableLiveData&amp;lt;YearMonth&amp;gt;&lt;/p&gt;&lt;hr size=&quot;1&quot;/&gt;&lt;p style=&quot;margin:0 0 0 4px;line-height:1.6;&quot;&gt;- transformYearMonthToQuery(YearMonth): LiveData&amp;lt;List&amp;lt;Apod&amp;gt;&amp;gt;&lt;br/&gt;- postThrowable(Throwable): void&lt;/p&gt;&lt;hr size=&quot;1&quot;/&gt;&lt;p style=&quot;margin:0 0 0 4px;line-height:1.6;&quot;&gt; apods: LiveData&amp;lt;List&amp;lt;Apod&amp;gt;&amp;gt;&lt;br/&gt; apodMap: LiveData&amp;lt;Map&amp;lt;LocalDate, Apod&amp;gt;&amp;gt;&lt;br/&gt; apod: LiveData&amp;lt;Apod&amp;gt;&lt;br/&gt; yearMonth: LiveData&amp;lt;YearMonth&amp;gt;&lt;br/&gt; apodId: long&lt;/p&gt;" style="verticalAlign=top;align=left;overflow=fill;fontSize=14;fontFamily=Helvetica;html=1;rounded=0;shadow=0;comic=0;labelBackgroundColor=none;strokeWidth=1;">
      <mxGeometry x="14" y="-328" width="461" height="273" as="geometry" />
    </mxCell>
    <mxCell id="node13" parent="1" vertex="1" value="&lt;p style=&quot;margin:0px;margin-top:4px;text-align:center;&quot;&gt;&lt;b&gt;CalendarFragment&lt;/b&gt;&lt;/p&gt;&lt;hr size=&quot;1&quot;/&gt;&lt;p style=&quot;margin:0 0 0 4px;line-height:1.6;&quot;&gt;+ onViewCreated(View, Bundle?): void&lt;br/&gt;- handleApods(Map&amp;lt;LocalDate, Apod&amp;gt;): void&lt;br/&gt;- showApod(Apod): void&lt;br/&gt;+ onCreateView(LayoutInflater, ViewGroup?, Bundle?): View?&lt;br/&gt;- handleYearMonth(YearMonth): void&lt;br/&gt;+ onDestroyView(): void&lt;br/&gt;- handleMonthScroll(CalendarMonth): Unit&lt;/p&gt;" style="verticalAlign=top;align=left;overflow=fill;fontSize=14;fontFamily=Helvetica;html=1;rounded=0;shadow=0;comic=0;labelBackgroundColor=none;strokeWidth=1;">
      <mxGeometry x="-220" y="264" width="418" height="200" as="geometry" />
    </mxCell>
    <mxCell id="node10" parent="1" vertex="1" value="&lt;p style=&quot;margin:0px;margin-top:4px;text-align:center;&quot;&gt;&lt;b&gt;DatabaseModule&lt;/b&gt;&lt;/p&gt;&lt;hr size=&quot;1&quot;/&gt;&lt;p style=&quot;margin:0 0 0 4px;line-height:1.6;&quot;&gt;~ provideApodDao(ApodDatabase): ApodDao&lt;br/&gt;~ provideDatabase(Context): ApodDatabase&lt;/p&gt;" style="verticalAlign=top;align=left;overflow=fill;fontSize=14;fontFamily=Helvetica;html=1;rounded=0;shadow=0;comic=0;labelBackgroundColor=none;strokeWidth=1;">
      <mxGeometry x="491" y="708" width="314" height="92" as="geometry" />
    </mxCell>
    <mxCell id="node8" parent="1" vertex="1" value="&lt;p style=&quot;margin:0px;margin-top:4px;text-align:center;&quot;&gt;&lt;b&gt;DayBinder&lt;/b&gt;&lt;/p&gt;&lt;hr size=&quot;1&quot;/&gt;&lt;p style=&quot;margin:0 0 0 4px;line-height:1.6;&quot;&gt;- listener: OnApodClickListener&lt;br/&gt;- apodMap: Map&amp;lt;LocalDate, Apod&amp;gt;&lt;/p&gt;&lt;hr size=&quot;1&quot;/&gt;&lt;p style=&quot;margin:0 0 0 4px;line-height:1.6;&quot;&gt;+ create(View): ViewContainer&lt;br/&gt;+ bind(ViewContainer, CalendarDay): void&lt;/p&gt;&lt;hr size=&quot;1&quot;/&gt;&lt;p style=&quot;margin:0 0 0 4px;line-height:1.6;&quot;&gt; listener: OnApodClickListener&lt;br/&gt; apodMap: Map&amp;lt;LocalDate, Apod&amp;gt;&lt;/p&gt;" style="verticalAlign=top;align=left;overflow=fill;fontSize=14;fontFamily=Helvetica;html=1;rounded=0;shadow=0;comic=0;labelBackgroundColor=none;strokeWidth=1;">
      <mxGeometry x="243" y="264" width="293" height="181" as="geometry" />
    </mxCell>
    <mxCell id="node9" parent="1" vertex="1" value="&lt;p style=&quot;margin:0px;margin-top:4px;text-align:center;&quot;&gt;&lt;b&gt;HeaderBinder&lt;/b&gt;&lt;/p&gt;&lt;hr size=&quot;1&quot;/&gt;&lt;p style=&quot;margin:0 0 0 4px;line-height:1.6;&quot;&gt;+ bind(ViewContainer, CalendarMonth): void&lt;br/&gt;+ create(View): ViewContainer&lt;/p&gt;" style="verticalAlign=top;align=left;overflow=fill;fontSize=14;fontFamily=Helvetica;html=1;rounded=0;shadow=0;comic=0;labelBackgroundColor=none;strokeWidth=1;">
      <mxGeometry x="-220" y="863" width="311" height="92" as="geometry" />
    </mxCell>
    <mxCell id="node4" parent="1" vertex="1" value="&lt;p style=&quot;margin:0px;margin-top:4px;text-align:center;&quot;&gt;&lt;b&gt;ImageFragment&lt;/b&gt;&lt;/p&gt;&lt;hr size=&quot;1&quot;/&gt;&lt;p style=&quot;margin:0 0 0 4px;line-height:1.6;&quot;&gt;+ onDestroyView(): void&lt;br/&gt;+ onViewCreated(View, Bundle?): void&lt;br/&gt;+ onCreate(Bundle?): void&lt;br/&gt;+ onCreateView(LayoutInflater, ViewGroup?, Bundle?): View?&lt;br/&gt;- handleApod(Apod): void&lt;/p&gt;" style="verticalAlign=top;align=left;overflow=fill;fontSize=14;fontFamily=Helvetica;html=1;rounded=0;shadow=0;comic=0;labelBackgroundColor=none;strokeWidth=1;">
      <mxGeometry x="581" y="264" width="418" height="154" as="geometry" />
    </mxCell>
    <mxCell id="node6" parent="1" vertex="1" value="&lt;p style=&quot;margin:0px;margin-top:4px;text-align:center;&quot;&gt;&lt;b&gt;MainActivity&lt;/b&gt;&lt;/p&gt;&lt;hr size=&quot;1&quot;/&gt;&lt;p style=&quot;margin:0 0 0 4px;line-height:1.6;&quot;&gt;+ onSupportNavigateUp(): boolean&lt;br/&gt;# onCreate(Bundle): void&lt;br/&gt;- setupNavigation(): void&lt;br/&gt;- setupUI(): void&lt;/p&gt;" style="verticalAlign=top;align=left;overflow=fill;fontSize=14;fontFamily=Helvetica;html=1;rounded=0;shadow=0;comic=0;labelBackgroundColor=none;strokeWidth=1;">
      <mxGeometry x="665" y="509" width="251" height="141" as="geometry" />
    </mxCell>
    <mxCell id="node3" parent="1" vertex="1" value="&lt;p style=&quot;margin:0px;margin-top:4px;text-align:center;&quot;&gt;&lt;b&gt;NasaApodApplication&lt;/b&gt;&lt;/p&gt;&lt;hr size=&quot;1&quot;/&gt;&lt;p style=&quot;margin:0 0 0 4px;line-height:1.6;&quot;&gt;+ onCreate(): void&lt;/p&gt;" style="verticalAlign=top;align=left;overflow=fill;fontSize=14;fontFamily=Helvetica;html=1;rounded=0;shadow=0;comic=0;labelBackgroundColor=none;strokeWidth=1;">
      <mxGeometry x="434" y="863" width="219" height="67" as="geometry" />
    </mxCell>
    <mxCell id="node11" parent="1" vertex="1" value="&lt;p style=&quot;margin:0px;margin-top:4px;text-align:center;&quot;&gt;&lt;b&gt;PicassoModule&lt;/b&gt;&lt;/p&gt;&lt;hr size=&quot;1&quot;/&gt;&lt;p style=&quot;margin:0 0 0 4px;line-height:1.6;&quot;&gt;~ providePicasso(Context): Picasso&lt;/p&gt;" style="verticalAlign=top;align=left;overflow=fill;fontSize=14;fontFamily=Helvetica;html=1;rounded=0;shadow=0;comic=0;labelBackgroundColor=none;strokeWidth=1;">
      <mxGeometry x="136" y="863" width="253" height="67" as="geometry" />
    </mxCell>
    <mxCell id="node2" parent="1" vertex="1" value="&lt;p style=&quot;margin:0px;margin-top:4px;text-align:center;&quot;&gt;&lt;b&gt;ProxyModule&lt;/b&gt;&lt;/p&gt;&lt;hr size=&quot;1&quot;/&gt;&lt;p style=&quot;margin:0 0 0 4px;line-height:1.6;&quot;&gt;~ provideInterceptor(Context): Interceptor&lt;br/&gt;~ provideProxy(Context, Gson, OkHttpClient): ApodProxyService&lt;br/&gt;~ provideClient(Interceptor): OkHttpClient&lt;br/&gt;~ provideGson(): Gson&lt;/p&gt;" style="verticalAlign=top;align=left;overflow=fill;fontSize=14;fontFamily=Helvetica;html=1;rounded=0;shadow=0;comic=0;labelBackgroundColor=none;strokeWidth=1;">
      <mxGeometry x="182" y="509" width="438" height="141" as="geometry" />
    </mxCell>
  </root>
</mxGraphModel>